<svg xmlns="http://www.w3.org/2000/svg" version="1.1" xmlns:xlink="http://www.w3.org/1999/xlink" width="1000" height="1000"><metadata><rdf:RDF xmlns:rdf="http://www.w3.org/1999/02/22-rdf-syntax-ns#" xmlns:dc="http://purl.org/dc/elements/1.1/"><rdf:Description><dc:creator>RealFaviconGenerator</dc:creator><dc:source>https://realfavicongenerator.net</dc:source></rdf:Description></rdf:RDF></metadata><g clip-path="url(#SvgjsClipPath1097)"><rect width="1000" height="1000" fill="#ffffff"></rect><g transform="matrix(7.05529588147103,0,0,7.05529588147103,100,100)"><svg xmlns="http://www.w3.org/2000/svg" id="pictogram" viewBox="0 0 113.39 113.39" width="113.39" height="113.39"><defs>
    <style>
      .cls-1 {
        fill: #000;
        stroke-width: 0px;
      }
    </style>
  <clipPath id="SvgjsClipPath1097"><rect width="1000" height="1000" x="0" y="0" rx="500" ry="500"></rect></clipPath></defs><g>
    <path class="cls-1" d="M45.36,60.21c-12.52,0-22.68,10.15-22.68,22.68,1.19,30.08,44.16,30.07,45.35,0,0-12.52-10.15-22.68-22.68-22.68ZM43.46,99.78c-10.25-.84-17.6-11.99-14.4-21.74.63,1.58,2.6,6.15,6.05,11.31,3.22,4.81,7.01,8.79,8.69,10.47-.11-.01-.22-.02-.34-.04Z"></path>
    <path class="cls-1" d="M82.35,39.76c-11.77,0-21.44,8.97-22.57,20.44,7.54,4.64,12.6,13.61,12.51,22.57,14.69,7.53,32.95-3.73,32.73-20.33,0-12.52-10.15-22.68-22.68-22.68ZM99.18,64.86c-.92,6.58-5.89,12.33-12.38,13.98,1.36-1.94,4.41-6.52,6.75-11.81,2.51-5.68,3.65-10.52,4-12.18,1.58,3.09,2.12,6.63,1.63,10.02Z"></path>
  </g><path class="cls-1" d="M39.69,8.55c-12.52,0-22.68,10.15-22.68,22.68s10.15,22.68,22.68,22.68,22.68-10.15,22.68-22.68-10.15-22.68-22.68-22.68ZM32.26,46.45c0-.12-1.37-4.82-4.67-10.4-1.45-2.45-3.01-4.54-4.83-6.43.38-3.92,2.11-7.44,4.7-10.13,6.26,14.31,4.83,26.87,4.79,26.96Z"></path></svg></g></g></svg>